<svg xmlns="http://www.w3.org/2000/svg" viewBox="0 0 100 36" fill="none" class="footericons_SizeMedium_3-w0R footericons_Light_2e0Fq"><path class="footericons_Background_I3P4e" fill="#fff" d="M0 18C0 8.05888 8.05888 0 18 0H82C91.9411 0 100 8.05888 100 18C100 27.9411 91.9411 36 82 36H18C8.05888 36 0 27.9411 0 18Z"></path><path class="footericons_Foreground_39K5g" fill="#000" d="M21.8011 11.5C22.6531 11.5 23.4391 11.62 24.1591 11.86C24.8791 12.1 25.4851 12.394 25.9771 12.742L24.8611 14.722C24.4171 14.41 23.9191 14.158 23.3671 13.966C22.8271 13.774 22.3111 13.678 21.8191 13.678C21.2191 13.678 20.7511 13.804 20.4151 14.056C20.0791 14.296 19.9111 14.632 19.9111 15.064C19.9111 15.496 20.1091 15.838 20.5051 16.09C20.9011 16.33 21.5071 16.594 22.3231 16.882C23.1631 17.182 23.8351 17.458 24.3391 17.71C24.8431 17.962 25.2811 18.334 25.6531 18.826C26.0371 19.306 26.2291 19.924 26.2291 20.68C26.2291 21.484 26.0191 22.18 25.5991 22.768C25.1911 23.356 24.6151 23.812 23.8711 24.136C23.1271 24.448 22.2751 24.604 21.3151 24.604C20.5351 24.604 19.7371 24.502 18.9211 24.298C18.1171 24.082 17.4091 23.794 16.7971 23.434L17.6251 21.238C18.2011 21.55 18.8071 21.802 19.4431 21.994C20.0911 22.174 20.7271 22.264 21.3511 22.264C22.0351 22.264 22.5451 22.132 22.8811 21.868C23.2291 21.604 23.4031 21.256 23.4031 20.824C23.4031 20.392 23.2171 20.056 22.8451 19.816C22.4731 19.576 21.9031 19.33 21.1351 19.078C20.2711 18.802 19.5751 18.538 19.0471 18.286C18.5191 18.022 18.0631 17.644 17.6791 17.152C17.3071 16.648 17.1211 15.994 17.1211 15.19C17.1211 14.446 17.3131 13.798 17.6971 13.246C18.0931 12.682 18.6451 12.25 19.3531 11.95C20.0611 11.65 20.8771 11.5 21.8011 11.5Z"></path><path class="footericons_Foreground_39K5g" fill="#000" d="M35.2486 24.388H32.6026V14.056H28.7866V11.788H39.0646V14.056H35.2486V24.388Z"></path><path class="footericons_Foreground_39K5g" fill="#000" d="M42.3148 11.788H50.8108V14.038H44.9608V16.882H50.0008V19.15H44.9608V22.102H50.8108V24.388H42.3148V11.788Z"></path><path class="footericons_Foreground_39K5g" fill="#000" d="M65.8582 24.388H62.9962L62.1322 21.94H57.2002L56.3722 24.388H53.6182L58.3342 11.788H60.9982L65.8582 24.388ZM59.6482 14.794L57.9202 19.834H61.4122L59.6482 14.794Z"></path><path class="footericons_Foreground_39K5g" fill="#000" d="M75.8489 20.734L79.7729 11.788H82.4549V24.388H79.9169V16.378L76.5329 24.028H74.9309L71.4749 16.468V24.388H69.0629V11.788H71.6009L75.8489 20.734Z"></path></svg>