<?xml version="1.0" encoding="UTF-8"?>
<svg id="Layer_1" xmlns="http://www.w3.org/2000/svg" version="1.1" viewBox="0 0 176.36 38">
  <!-- Generator: Adobe Illustrator 29.2.1, SVG Export Plug-In . SVG Version: 2.1.0 Build 116)  -->
  <defs>
    <style>
      .st0 {
        fill: #3fafa8;
      }

      .st1 {
        fill: #fff;
      }
    </style>
  </defs>
  <rect class="st0" x="0" y="0" width="176.36" height="38" rx="19" ry="19"/>
  <g>
    <path class="st1" d="M59.4,26.66v-15.77h4.92c2.76,0,4.85.63,6.25,1.9,1.4,1.27,2.11,3.2,2.11,5.79s-.76,4.47-2.29,5.92c-1.53,1.45-3.58,2.17-6.17,2.17h-4.82ZM62.01,13.13v11.28h2.09c1.83,0,3.25-.5,4.28-1.49,1.03-.99,1.54-2.43,1.54-4.31s-.49-3.21-1.46-4.12c-.98-.91-2.41-1.37-4.31-1.37h-2.13Z"/>
    <path class="st1" d="M80.12,26.92c-1.78,0-3.2-.52-4.25-1.57-1.05-1.05-1.57-2.46-1.57-4.23,0-1.8.56-3.24,1.67-4.34s2.54-1.64,4.31-1.64,3.17.54,4.2,1.62c1.03,1.08,1.54,2.47,1.54,4.18s-.54,3.18-1.62,4.31c-1.08,1.13-2.51,1.69-4.28,1.69ZM80.22,24.84c1.01,0,1.8-.35,2.35-1.04.56-.69.84-1.63.84-2.81s-.28-2.05-.84-2.74c-.56-.69-1.34-1.04-2.35-1.04s-1.81.36-2.41,1.07c-.6.71-.9,1.64-.9,2.78s.3,2.11.89,2.78,1.4,1.01,2.42,1.01Z"/>
    <path class="st1" d="M103.61,15.4l-3.32,11.26h-2.67l-2.02-7.33c-.05-.19-.09-.34-.11-.45-.02-.11-.05-.25-.08-.43h-.05c-.03.18-.06.32-.09.43s-.07.25-.12.41l-2.19,7.36h-2.64l-3.31-11.26h2.6l2.01,7.71c.04.13.07.27.09.41.02.14.05.31.08.49h.07c.04-.19.07-.36.1-.5.03-.14.07-.29.12-.43l2.29-7.68h2.43l2.05,7.72c.02.09.05.21.08.36.03.15.07.33.1.54h.08c.04-.21.07-.36.09-.47.02-.11.06-.25.1-.43l1.95-7.72h2.39Z"/>
    <path class="st1" d="M115.36,26.66h-2.55v-6.59c0-.93-.19-1.64-.56-2.13-.37-.49-.93-.73-1.66-.73-.8,0-1.45.29-1.95.86-.5.57-.75,1.29-.75,2.17v6.42h-2.56v-11.26h2.56v1.53h.04c.4-.57.91-1.01,1.55-1.33.63-.31,1.32-.47,2.06-.47,1.25,0,2.2.4,2.85,1.19.65.79.98,1.92.98,3.4v6.94Z"/>
    <path class="st1" d="M118.22,26.66V9.98h2.56v16.67h-2.56Z"/>
    <path class="st1" d="M128.95,26.92c-1.78,0-3.2-.52-4.25-1.57s-1.57-2.46-1.57-4.23c0-1.8.56-3.24,1.67-4.34,1.11-1.1,2.54-1.64,4.31-1.64s3.17.54,4.2,1.62c1.03,1.08,1.54,2.47,1.54,4.18s-.54,3.18-1.62,4.31c-1.08,1.13-2.51,1.69-4.28,1.69ZM129.05,24.84c1.01,0,1.8-.35,2.35-1.04.56-.69.84-1.63.84-2.81s-.28-2.05-.84-2.74c-.56-.69-1.34-1.04-2.35-1.04s-1.81.36-2.41,1.07c-.6.71-.9,1.64-.9,2.78s.3,2.11.89,2.78c.59.67,1.4,1.01,2.42,1.01Z"/>
    <path class="st1" d="M144.71,26.66h-2.48v-1.4h-.04c-.4.54-.88.96-1.45,1.24-.57.28-1.21.42-1.91.42-1.04,0-1.89-.3-2.56-.89-.66-.59-1-1.37-1-2.33,0-1.03.33-1.86,1-2.49.66-.63,1.62-1.01,2.85-1.15l3.12-.35v-.54c0-.7-.19-1.22-.58-1.57s-.9-.52-1.53-.52-1.15.14-1.57.42c-.43.28-.78.68-1.06,1.2l-1.91-.98c.38-.76.98-1.38,1.8-1.86s1.8-.73,2.93-.73c1.42,0,2.51.37,3.26,1.12.75.74,1.13,1.82,1.13,3.24v7.17ZM142.25,22.08v-.62l-2.72.3c-.62.07-1.08.24-1.36.52-.29.28-.43.65-.43,1.12s.16.86.49,1.16c.33.3.75.45,1.27.45.82,0,1.49-.28,1.99-.83s.76-1.25.76-2.09Z"/>
    <path class="st1" d="M155.4,25.1c-.41.6-.93,1.06-1.55,1.36-.62.31-1.33.46-2.12.46-1.51,0-2.7-.5-3.57-1.5-.87-1-1.3-2.38-1.3-4.13,0-1.89.49-3.39,1.46-4.5.97-1.11,2.27-1.66,3.89-1.66.7,0,1.34.14,1.91.42.57.28,1,.63,1.29,1.06h.04v-6.62h2.56v16.67h-2.56v-1.56h-.04ZM149.46,21.19c0,1.14.26,2.04.78,2.68.52.65,1.24.97,2.16.97s1.69-.32,2.24-.97c.56-.64.84-1.47.84-2.49v-1.29c0-.82-.27-1.51-.81-2.06s-1.24-.83-2.1-.83c-.96,0-1.72.34-2.28,1.03s-.84,1.67-.84,2.95Z"/>
  </g>
  <path class="st1" d="M29.96,6.28h3.98c.66,0,1.19.53,1.19,1.19v8.35h4.36c.88,0,1.33,1.07.7,1.69l-7.56,7.56c-.37.37-.98.37-1.36,0l-7.57-7.56c-.63-.63-.18-1.69.7-1.69h4.36V7.47c0-.66.53-1.19,1.19-1.19ZM44.67,24.96v5.57c0,.66-.53,1.19-1.19,1.19h-23.06c-.66,0-1.19-.53-1.19-1.19v-5.57c0-.66.53-1.19,1.19-1.19h7.29l2.44,2.44c1,1,2.61,1,3.61,0l2.44-2.44h7.29c.66,0,1.19.53,1.19,1.19ZM38.5,29.34c0-.55-.45-.99-.99-.99s-.99.45-.99.99.45.99.99.99.99-.45.99-.99ZM41.68,29.34c0-.55-.45-.99-.99-.99s-.99.45-.99.99.45.99.99.99.99-.45.99-.99Z"/>
</svg>