<?xml version="1.0" encoding="UTF-8" standalone="no"?>
<!-- Created with Inkscape (http://www.inkscape.org/) -->

<svg
   width="81.700577mm"
   height="24.334814mm"
   viewBox="0 0 81.700577 24.334814"
   version="1.1"
   id="svg5"
   inkscape:version="1.2.2 (b0a8486541, 2022-12-01)"
   sodipodi:docname="download.svg"
   xmlns:inkscape="http://www.inkscape.org/namespaces/inkscape"
   xmlns:sodipodi="http://sodipodi.sourceforge.net/DTD/sodipodi-0.dtd"
   xmlns:xlink="http://www.w3.org/1999/xlink"
   xmlns="http://www.w3.org/2000/svg"
   xmlns:svg="http://www.w3.org/2000/svg">
  <sodipodi:namedview
     id="namedview7"
     pagecolor="#505050"
     bordercolor="#ffffff"
     borderopacity="1"
     inkscape:showpageshadow="0"
     inkscape:pageopacity="0"
     inkscape:pagecheckerboard="1"
     inkscape:deskcolor="#505050"
     inkscape:document-units="mm"
     showgrid="false"
     inkscape:zoom="3.659624"
     inkscape:cx="115.44902"
     inkscape:cy="59.295709"
     inkscape:window-width="1827"
     inkscape:window-height="1233"
     inkscape:window-x="69"
     inkscape:window-y="38"
     inkscape:window-maximized="0"
     inkscape:current-layer="layer1" />
  <defs
     id="defs2">
    <linearGradient
       inkscape:collect="always"
       id="linearGradient4494">
      <stop
         style="stop-color:#009fff;stop-opacity:1;"
         offset="0"
         id="stop4490" />
      <stop
         style="stop-color:#ff1965;stop-opacity:1;"
         offset="0.79417855"
         id="stop4498" />
      <stop
         style="stop-color:#b9b500;stop-opacity:1;"
         offset="1"
         id="stop4492" />
    </linearGradient>
    <linearGradient
       inkscape:collect="always"
       xlink:href="#linearGradient4494"
       id="linearGradient4496"
       x1="49.131042"
       y1="118.6573"
       x2="150.29259"
       y2="138.74957"
       gradientUnits="userSpaceOnUse"
       spreadMethod="pad"
       gradientTransform="matrix(1.0500324,0,0,1,-1.6155884,24.621921)" />
    <linearGradient
       inkscape:collect="always"
       xlink:href="#linearGradient4494"
       id="linearGradient13802"
       gradientUnits="userSpaceOnUse"
       gradientTransform="matrix(1.0500324,0,0,1,-1.6155884,24.621921)"
       x1="49.131042"
       y1="118.6573"
       x2="150.29259"
       y2="138.74957"
       spreadMethod="pad" />
  </defs>
  <g
     inkscape:label="Layer 1"
     inkscape:groupmode="layer"
     id="layer1"
     transform="translate(-64.149712,-136.3326)">
    <rect
       style="mix-blend-mode:normal;fill:url(#linearGradient13802);fill-opacity:1;stroke:none;stroke-width:0.271121"
       id="rect111"
       width="81.700577"
       height="24.334814"
       x="64.149712"
       y="136.3326"
       ry="8.1781616" />
    <text
       xml:space="preserve"
       style="font-size:3.175px;fill:#000000;stroke:none;stroke-width:0.264583"
       x="66.364288"
       y="124.84658"
       id="text10382"><tspan
         sodipodi:role="line"
         id="tspan10380"
         style="stroke-width:0.264583"
         x="66.364288"
         y="124.84658" /></text>
    <text
       xml:space="preserve"
       style="font-style:normal;font-variant:normal;font-weight:normal;font-stretch:normal;font-size:15.1694px;font-family:sans-serif;-inkscape-font-specification:sans-serif;white-space:pre;inline-size:82.6483;display:inline;fill:#ffffff;fill-opacity:1;stroke:none;stroke-width:0.264583"
       x="67.732498"
       y="126.05277"
       id="text10440"
       transform="translate(1.088576,28.135753)"><tspan
         x="67.732498"
         y="126.05277"
         id="tspan13872">Download</tspan></text>
    <rect
       style="mix-blend-mode:normal;fill:url(#linearGradient4496);fill-opacity:1;stroke:none;stroke-width:0.271121"
       id="rect13792"
       width="81.700577"
       height="24.334814"
       x="64.149712"
       y="136.3326"
       ry="8.1781616" />
    <text
       xml:space="preserve"
       style="font-size:3.175px;fill:#000000;stroke:none;stroke-width:0.264583"
       x="66.364288"
       y="124.84658"
       id="text13796"><tspan
         sodipodi:role="line"
         id="tspan13794"
         style="stroke-width:0.264583"
         x="66.364288"
         y="124.84658" /></text>
    <g
       aria-label="Download"
       transform="translate(1.088576,28.135753)"
       id="text13800"
       style="font-size:15.1694px;-inkscape-font-specification:sans-serif;white-space:pre;inline-size:82.6483;display:inline;fill:#ffffff;stroke-width:0.264583">
      <path
         d="m 77.880751,120.53111 q 0,2.74566 -1.501771,4.14125 -1.486601,1.38041 -4.156416,1.38041 h -3.01871 v -10.83095 h 3.337268 q 1.638295,0 2.836678,0.60678 1.198382,0.60677 1.850666,1.78999 0.652285,1.16804 0.652285,2.91252 z m -1.441093,0.0455 q 0,-2.16923 -1.077028,-3.17041 -1.061858,-1.01635 -3.01871,-1.01635 H 70.5691 v 8.49487 h 1.471432 q 4.399126,0 4.399126,-4.30811 z"
         id="path13828" />
      <path
         d="m 87.164417,121.9722 q 0,2.01753 -1.03152,3.1249 -1.01635,1.10737 -2.760831,1.10737 -1.077027,0 -1.926513,-0.48542 -0.834317,-0.50059 -1.319738,-1.4411 -0.485421,-0.95567 -0.485421,-2.30575 0,-2.01753 1.01635,-3.10972 1.01635,-1.0922 2.760831,-1.0922 1.107366,0 1.941683,0.50059 0.849486,0.48542 1.319738,1.42592 0.485421,0.92534 0.485421,2.27541 z m -6.143608,0 q 0,1.4411 0.561268,2.29058 0.576437,0.83432 1.820328,0.83432 1.228722,0 1.805159,-0.83432 0.576437,-0.84948 0.576437,-2.29058 0,-1.44109 -0.576437,-2.26024 -0.576437,-0.81914 -1.820328,-0.81914 -1.243891,0 -1.805159,0.81914 -0.561268,0.81915 -0.561268,2.26024 z"
         id="path13830" />
      <path
         d="m 94.218174,121.45644 q -0.197202,-0.62194 -0.348896,-1.21355 -0.136525,-0.60677 -0.212372,-0.9405 h -0.06068 q -0.06068,0.33373 -0.197203,0.9405 -0.136524,0.59161 -0.348896,1.22872 l -1.456262,4.56599 h -1.51694 l -2.229902,-8.1308 h 1.380415 l 1.122536,4.33845 q 0.166863,0.65229 0.318557,1.31974 0.151694,0.66745 0.212372,1.10737 h 0.06068 q 0.06068,-0.25788 0.136525,-0.63712 0.09102,-0.37923 0.197202,-0.78881 0.106186,-0.42474 0.212372,-0.75847 l 1.441093,-4.58116 h 1.456262 l 1.395585,4.58116 q 0.166864,0.51576 0.318558,1.12254 0.166863,0.60678 0.227541,1.04669 h 0.06068 q 0.04551,-0.37924 0.197202,-1.04669 0.166864,-0.66745 0.348897,-1.36525 l 1.137705,-4.33845 h 1.365246 l -2.260241,8.1308 h -1.562448 z"
         id="path13832" />
      <path
         d="m 104.8064,117.77028 q 1.45627,0 2.19957,0.71296 0.7433,0.69779 0.7433,2.27541 v 5.29412 h -1.31974 v -5.2031 q 0,-1.95685 -1.82033,-1.95685 -1.35007,0 -1.86583,0.75847 -0.51576,0.75847 -0.51576,2.18439 v 4.21709 h -1.33491 v -8.1308 h 1.07703 l 0.1972,1.10737 h 0.0759 q 0.3944,-0.63711 1.09219,-0.9405 0.69779,-0.31856 1.47143,-0.31856 z"
         id="path13834" />
      <path
         d="m 111.6023,126.05277 h -1.33491 v -11.52874 h 1.33491 z"
         id="path13836" />
      <path
         d="m 121.25003,121.9722 q 0,2.01753 -1.03152,3.1249 -1.01635,1.10737 -2.76084,1.10737 -1.07702,0 -1.92651,-0.48542 -0.83432,-0.50059 -1.31974,-1.4411 -0.48542,-0.95567 -0.48542,-2.30575 0,-2.01753 1.01635,-3.10972 1.01635,-1.0922 2.76083,-1.0922 1.10737,0 1.94169,0.50059 0.84948,0.48542 1.31973,1.42592 0.48543,0.92534 0.48543,2.27541 z m -6.14361,0 q 0,1.4411 0.56127,2.29058 0.57643,0.83432 1.82032,0.83432 1.22873,0 1.80516,-0.83432 0.57644,-0.84948 0.57644,-2.29058 0,-1.44109 -0.57644,-2.26024 -0.57643,-0.81914 -1.82033,-0.81914 -1.24389,0 -1.80515,0.81914 -0.56127,0.81915 -0.56127,2.26024 z"
         id="path13838" />
      <path
         d="m 126.43796,117.78545 q 1.4866,0 2.19956,0.65228 0.71296,0.65229 0.71296,2.07821 v 5.53683 h -0.97084 l -0.25788,-1.15287 h -0.0607 q -0.53093,0.66745 -1.12253,0.98601 -0.57644,0.31856 -1.60796,0.31856 -1.10737,0 -1.8355,-0.57644 -0.72813,-0.59161 -0.72813,-1.8355 0,-1.21355 0.95567,-1.86583 0.95567,-0.66746 2.94287,-0.72814 l 1.38041,-0.0455 v -0.48542 q 0,-1.01635 -0.43991,-1.41076 -0.43991,-0.3944 -1.24389,-0.3944 -0.63712,0 -1.21355,0.1972 -0.57644,0.18203 -1.07703,0.42474 l -0.40957,-1.00118 q 0.53092,-0.28822 1.25906,-0.48542 0.72813,-0.21237 1.51694,-0.21237 z m 0.3944,4.33845 q -1.51694,0.0607 -2.10855,0.48542 -0.57643,0.42474 -0.57643,1.19838 0,0.68262 0.40957,1.00118 0.42474,0.31856 1.07703,0.31856 1.03152,0 1.71414,-0.56127 0.68262,-0.57644 0.68262,-1.75965 v -0.72813 z"
         id="path13840" />
      <path
         d="m 134.7508,126.20447 q -1.51694,0 -2.42711,-1.04669 -0.91016,-1.06186 -0.91016,-3.15524 0,-2.09337 0.91016,-3.15523 0.92534,-1.07703 2.44228,-1.07703 0.9405,0 1.53211,0.3489 0.60677,0.34889 0.98601,0.84948 h 0.091 q -0.0152,-0.1972 -0.0607,-0.57643 -0.0303,-0.39441 -0.0303,-0.62195 v -3.24625 h 1.3349 v 11.52874 h -1.07702 l -0.19721,-1.09219 h -0.0607 q -0.36407,0.51576 -0.97084,0.87982 -0.60678,0.36407 -1.56245,0.36407 z m 0.21237,-1.10737 q 1.2894,0 1.80516,-0.69779 0.53093,-0.71296 0.53093,-2.13889 v -0.24271 q 0,-1.51694 -0.50059,-2.32092 -0.50059,-0.81914 -1.85067,-0.81914 -1.07703,0 -1.62313,0.86465 -0.53093,0.84949 -0.53093,2.29058 0,1.45626 0.53093,2.26024 0.5461,0.80398 1.6383,0.80398 z"
         id="path13842" />
    </g>
  </g>
</svg>
